<?xml version="1.0" standalone="no"?>
<!DOCTYPE svg PUBLIC "-//W3C//DTD SVG 20010904//EN"
 "http://www.w3.org/TR/2001/REC-SVG-20010904/DTD/svg10.dtd">
<svg version="1.0" xmlns="http://www.w3.org/2000/svg"
 width="1200.000000pt" height="1200.000000pt" viewBox="0 0 1200.000000 1200.000000"
 preserveAspectRatio="xMidYMid meet">
<metadata>
Created by potrace 1.14, written by Peter Selinger 2001-2017
</metadata>
<g transform="translate(0.000000,1200.000000) scale(0.100000,-0.100000)"
fill="#000000" stroke="none">
<path d="M0 6000 l0 -6000 6000 0 6000 0 0 6000 0 6000 -6000 0 -6000 0 0
-6000z m4510 3251 c468 -86 821 -278 1110 -603 243 -273 369 -540 449 -953 38
-194 65 -407 57 -450 -15 -78 -108 -126 -175 -89 -61 34 -70 55 -97 245 -83
582 -201 850 -508 1154 -263 261 -594 411 -1007 456 -64 7 -186 9 -319 6 -177
-5 -236 -10 -335 -31 -251 -53 -488 -137 -760 -271 -289 -143 -502 -296 -686
-495 -176 -190 -281 -341 -404 -585 -108 -212 -162 -351 -322 -835 -167 -501
-219 -643 -294 -793 -117 -238 -231 -355 -387 -396 -93 -25 -172 29 -172 118
0 63 26 95 104 131 84 37 141 103 214 248 73 144 107 234 287 772 78 234 166
486 195 560 70 177 218 469 302 595 150 225 369 467 548 606 395 308 1041 578
1500 628 144 16 578 5 700 -18z m-1970 -2126 c0 -37 141 -1524 147 -1559 7
-31 25 67 93 495 l86 534 161 3 c123 2 162 0 165 -10 3 -7 43 -255 89 -551 46
-296 85 -534 86 -530 1 4 34 355 73 778 38 424 72 789 75 813 l6 42 239 0
c131 0 241 -3 243 -7 3 -6 -256 -2086 -262 -2110 -1 -2 -124 -3 -275 -3 l-275
0 -10 53 c-6 28 -40 207 -76 397 -36 190 -68 356 -71 370 -6 21 -40 -153 -164
-818 0 -1 -125 -1 -277 0 l-277 3 -133 1040 c-73 572 -132 1048 -133 1058 0
16 18 17 245 17 212 0 245 -2 245 -15z m5290 -125 l0 -139 -472 -3 c-472 -3
-473 -3 -509 -26 -46 -28 -86 -79 -113 -146 -20 -49 -21 -69 -24 -571 -3 -440
-1 -532 12 -595 18 -84 59 -153 114 -191 35 -24 39 -24 289 -27 l253 -3 0 320
0 321 -212 2 -213 3 0 140 0 140 455 0 455 0 3 -602 2 -603 -614 0 c-584 0
-617 1 -678 20 -168 52 -290 187 -345 381 -16 59 -18 113 -18 654 0 652 -1
642 66 782 35 74 132 182 196 220 107 62 100 62 756 62 l597 1 0 -140z m-2279
-300 c30 -6 81 -23 115 -39 161 -76 234 -218 234 -461 0 -176 -38 -297 -117
-376 -43 -44 -137 -90 -212 -104 -31 -6 -225 -10 -458 -10 l-405 0 4 -152 c3
-137 5 -157 25 -189 41 -65 31 -64 531 -67 l452 -3 0 -140 0 -140 -592 3
c-580 3 -594 4 -658 25 -156 53 -232 139 -277 319 -15 60 -18 122 -18 499 0
377 3 439 18 499 25 101 50 149 104 207 68 72 147 109 278 129 78 12 914 12
976 0z m4073 -13 c135 -40 224 -109 273 -214 48 -104 53 -156 53 -613 0 -449
-4 -500 -49 -603 -26 -61 -103 -143 -161 -172 -118 -60 -118 -60 -690 -60
-481 0 -530 2 -585 18 -167 52 -253 142 -295 312 -17 69 -26 795 -11 920 26
224 105 341 266 395 105 35 168 38 660 36 420 -2 487 -4 539 -19z m-3485
-1931 c38 -20 58 -65 80 -178 37 -187 123 -340 281 -498 155 -156 345 -271
575 -348 329 -110 665 -158 1344 -192 181 -9 561 -14 561 -7 0 1 -9 26 -20 55
-11 29 -20 66 -20 83 0 61 60 141 117 155 49 13 225 -19 516 -92 398 -100 445
-115 485 -157 40 -41 50 -89 29 -139 -12 -27 -44 -58 -129 -120 -62 -47 -171
-135 -243 -197 -147 -127 -226 -189 -317 -244 -57 -35 -68 -38 -117 -34 -72 5
-111 45 -134 138 -9 35 -29 114 -45 174 l-28 110 -319 7 c-579 11 -1056 49
-1365 109 -423 81 -748 224 -1002 443 -242 209 -414 513 -435 772 -9 114 31
173 120 174 21 0 50 -6 66 -14z"/>
<path d="M4791 6402 c-70 -35 -76 -52 -79 -253 l-4 -180 309 3 c341 4 349 5
380 67 23 47 26 268 4 319 -25 59 -42 62 -323 62 -221 0 -257 -2 -287 -18z"/>
<path d="M8784 6406 c-41 -18 -71 -62 -84 -123 -7 -31 -10 -194 -8 -449 3
-387 4 -400 25 -447 18 -39 31 -52 68 -68 42 -19 63 -20 284 -17 225 3 241 4
268 24 72 54 82 119 82 539 1 427 -12 499 -93 536 -36 16 -68 19 -276 18 -175
0 -243 -3 -266 -13z"/>
</g>
</svg>
